<svg>
    <symbol id="star" xmlns="http://www.w3.org/2000/svg">
        <path d="M12 4.28021L13.7917 9.42447L13.967 9.92778H14.5H19.8539L15.6995 13.2355L15.3063 13.5486L15.4464 14.0313L16.9518 19.2179L12.4198 16.1563L12 15.8727L11.5802 16.1563L7.04821 19.2179L8.55361 14.0313L8.69371 13.5486L8.30049 13.2355L4.14608 9.92778H9.5H10.033L10.2083 9.42447L12 4.28021Z" stroke-width="1.5"/>
        <path d="M12 4.28021L13.7917 9.42447L13.967 9.92778H14.5H19.8539L15.6995 13.2355L15.3063 13.5486L15.4464 14.0313L16.9518 19.2179L12.4198 16.1563L12 15.8727L11.5802 16.1563L7.04821 19.2179L8.55361 14.0313L8.69371 13.5486L8.30049 13.2355L4.14608 9.92778H9.5H10.033L10.2083 9.42447L12 4.28021Z" stroke-width="1.5"/>
    </symbol>
    <symbol id="arrow" width="8" height="12" viewBox="0 0 8 12" fill="none" xmlns="http://www.w3.org/2000/svg">
        <path d="M4.8233 5.76267L1.06063 2L1.41397 1.64666L6.06031 6.293L1.41397 10.9393L1.06063 10.586L4.8233 6.82333L5.35363 6.293L4.8233 5.76267Z" fill="#0FEFFD" stroke="white" stroke-width="1.5"/>
    </symbol>
</svg>